<?xml version="1.0" encoding="UTF-8" standalone="no"?>
<svg width="338px" height="119px" viewBox="0 0 338 119" version="1.1" xmlns="http://www.w3.org/2000/svg" xmlns:xlink="http://www.w3.org/1999/xlink">
    <!-- Generator: Sketch 3.8.1 (29687) - http://www.bohemiancoding.com/sketch -->
    <title>header logo with text horizontal</title>
    <desc>Created with Sketch.</desc>
    <defs>
        <path d="M34.9969652,70.7945757 C37.7175083,70.7945757 40.1457335,69.7628367 42.4715506,67.8278103 C44.1843868,66.4027699 45.5513876,64.8332663 47.8886666,61.8169851 C48.0135291,61.6558489 48.4435278,61.0999422 48.452629,61.0881836 C48.6759146,60.7997021 48.8455621,60.5811934 49.0105804,60.3698204 C51.0259262,57.7883525 52.3307106,56.3599173 53.7364294,55.3377553 C54.367083,54.8791785 55.0309545,54.4442514 55.7441437,54.0182572 C56.5468193,53.538812 57.3893551,53.0826549 58.4146515,52.5632097 C58.9555085,52.2891958 60.7850603,51.3874533 61.0650393,51.2470913 C64.1273128,49.7118808 65.854074,48.5737228 67.2858888,46.890783 C69.0927889,44.766972 69.9939304,42.0587714 69.9939304,38.4647683 C69.9939304,32.8165937 69.1250397,29.5146716 66.3310613,23.7605441 C64.0210625,19.0031602 60.7798967,15.7577773 54.7072892,11.3277524 C53.9385343,10.7669384 51.2580012,8.84586576 51.0189953,8.67325804 C50.1381102,8.0370914 49.8025049,7.77655931 47.6768479,6.10136245 C45.048611,4.03009033 43.5662335,2.96116959 41.8289041,1.99340002 C39.4888444,0.6898829 37.269069,0 34.9969652,0 C32.0072898,0 29.4787026,1.19969643 27.1788855,3.45606403 C25.5189012,5.08468691 24.3773346,6.68329888 22.0038283,10.4101813 C21.9799883,10.4476153 21.9799883,10.4476153 21.9561592,10.4850322 C19.5229755,14.3056408 18.3695647,15.8908 16.774456,17.3313361 C15.5423543,18.444042 14.1631488,19.4305434 12.3925022,20.5143556 C11.8821454,20.8267448 11.3564039,21.1376897 10.6631318,21.5397869 C10.7070392,21.5143207 9.31920596,22.3162275 8.93468262,22.5412553 C5.91970447,24.3056573 4.20288129,25.5561084 2.7727033,27.2574598 C0.936862187,29.4413913 0,32.0710938 0,35.3972878 C0,54.9466701 15.668675,70.7945757 34.9969652,70.7945757 L34.9969652,70.7945757 Z M34.9969652,67.8074628 C17.2997544,67.8074628 2.9533304,53.2969332 2.9533304,35.3972878 C2.9533304,32.7733253 3.64535043,30.8308766 5.02270808,29.1923607 C6.17483787,27.8217777 7.67231342,26.7310888 10.4137313,25.1267776 C10.7899523,24.9066085 12.1697862,24.1093237 12.1322765,24.1310794 C12.8439442,23.7183127 13.3879925,23.3965404 13.9215856,23.0699282 C15.8353023,21.8985429 17.355292,20.8113431 18.7414516,19.5595082 C20.6075896,17.8742066 21.8557931,16.1587716 24.4389845,12.1026195 C24.4628229,12.0651879 24.4628229,12.0651879 24.4866497,12.0277747 C26.7338929,8.4991507 27.7951575,7.01299112 29.235178,5.60017632 C31.0184506,3.85059437 32.8384011,2.9871129 34.9969652,2.9871129 C38.1481947,2.9871129 40.781143,4.45378193 45.861656,8.45765428 C48.0290102,10.165712 48.3731892,10.4328999 49.3028256,11.1042742 C49.5508084,11.283365 52.222948,13.1984223 52.9796585,13.7504498 C58.6921697,17.9177809 61.6341332,20.8635722 63.6801682,25.0773294 C66.2871105,30.4462609 67.0406,33.3096402 67.0406,38.4647683 C67.0406,41.3732688 66.3705068,43.3871001 65.0472862,44.9423994 C63.9431712,46.2401643 62.4848853,47.2013625 59.7534639,48.5707069 C59.4877891,48.7038977 57.6505866,49.609411 57.091982,49.8924165 C56.0106286,50.4402618 55.1110204,50.9273184 54.2423681,51.446172 C53.4557784,51.916009 52.7180824,52.3993013 52.0124877,52.9123712 C50.3177848,54.1446666 48.8706798,55.7289098 46.692736,58.5186504 C46.5247184,58.7338652 46.3527539,58.9553584 46.1271467,59.2468393 C46.1173506,59.2594957 45.6881208,59.8144082 45.5641939,59.9743371 C43.3557511,62.8243538 42.0906296,64.2768862 40.5954042,65.5208793 C38.7625663,67.0457584 36.9698747,67.8074628 34.9969652,67.8074628 L34.9969652,67.8074628 Z" id="path-1"></path>
    </defs>
    <g id="Page-1" stroke="none" stroke-width="1" fill="none" fill-rule="evenodd">
        <g id="header-logo-with-text-horizontal">
            <text id="descrição-logo" font-family="Roboto-Medium, Roboto" font-size="26" font-weight="400" letter-spacing="-0.0242990647" fill="#FFFFFF">
                <tspan x="123.604836" y="51">GDG DevFest</tspan>
                <tspan x="123.3181" y="81" font-family="Roboto-Light, Roboto" font-weight="300" letter-spacing="-0.0263239872">Cerrado 2016</tspan>
            </text>
            <g id="Group-6" transform="translate(17.000000, 16.000000)">
                <g id="copa">
                    <mask id="mask-2" fill="white">
                        <use xlink:href="#path-1"></use>
                    </mask>
                    <use id="Mask" fill="#000000" opacity="0" xlink:href="#path-1"></use>
                    <g id="Group-3" mask="url(#mask-2)">
                        <g transform="translate(-2.067331, -1.194845)" id="Rectangle-31">
                            <rect fill="#EF5350" x="0" y="0" width="32.7819674" height="73.7816886"></rect>
                            <rect fill="#FFEE58" x="21.5593119" y="0" width="32.7819674" height="60.9371031"></rect>
                            <rect fill="#66BB6A" x="54.3412793" y="0" width="21.5593119" height="73.7816886"></rect>
                            <rect fill="#66BB6A" x="54.3412793" y="0" width="6.79265992" height="73.7816886"></rect>
                            <rect fill="#42A5F5" x="36.035503" y="48.0925177" width="39.8650883" height="25.6891709"></rect>
                        </g>
                    </g>
                </g>
                <path d="M30.0295858,63.2164629 L34.5351662,63.2164629 L34.5351662,82.9756378 L30.0295858,82.9756378 L30.0295858,63.2164629 Z M31.0589781,63.2687207 L31.9449772,63.2687207 C31.9449772,63.2687207 31.9449772,62.2545655 31.9449772,69.1615896 L31.9449772,82.9756378 L31.0589781,82.9756378 L31.0589781,63.2687207 Z" id="Rectangle-1" fill="#FFFFFF"></path>
                <g id="Group" transform="translate(42.683120, 44.763871) rotate(30.500000) translate(-42.683120, -44.763871) translate(33.683120, 37.263871)" fill="#FFFFFF">
                    <path d="M8.55926893,8.94076769 L3.90217298,0.301577374 L-0.000349015273,2.71471428 L6.38349701,14.5571288 L8.55926893,13.2117333 L10.7350408,14.5571288 L17.1188869,2.71471428 L13.2163649,0.301577374 L8.55926893,8.94076769 Z" id="Combined-Shape"></path>
                    <polygon id="Triangle-1" points="8.54073582 13.0323857 10.774558 14.5571288 6.30691363 14.5571288"></polygon>
                </g>
                <g id="Group-4" transform="translate(30.704579, 21.994305)" fill="#FFFFFF">
                    <path d="M8.8973343,8.58155206 L4.20069359,0 L2.23099902,1.19965436 L0.265034144,2.39703713 L0.132517072,1.97591749 L0.265034144,2.39703713 L6.70308727,14.1604424 L8.8973343,12.824023 L11.0915813,14.1604424 L17.5296345,2.39703713 L13.593975,0 L8.8973343,8.58155206 Z" id="Combined-Shape"></path>
                    <polygon id="Triangle-1" points="8.87864382 12.6458719 11.131434 14.1604424 6.6258536 14.1604424"></polygon>
                </g>
                <g id="Group-2" transform="translate(22.217319, 46.594810)" fill="#FFFFFF">
                    <path d="M10.0665474,11.2021629 L3.93565945,0 L0,2.39703713 L1.41184862,4.97672188 L1.40768237,4.97925935 L7.8457355,16.7426646 L10.065308,15.3908206 L12.2848805,16.7426646 L18.7229337,4.97925935 L18.7206265,4.97785418 L19.7293127,3.13481491 L15.7936533,0.737777778 L10.0665474,11.2021629 Z" id="Combined-Shape"></path>
                    <polygon id="Triangle-1" points="10.071943 15.2280942 12.3247332 16.7426646 7.81915279 16.7426646"></polygon>
                </g>
                <g id="Group-3" transform="translate(10.313748, 33.524562)" fill="#FFFFFF">
                    <g id="Group-5" transform="translate(0.088601, 0.059741)">
                        <polygon id="Triangle-1" transform="translate(14.913920, 16.157286) rotate(-31.000000) translate(-14.913920, -16.157286) " points="14.9139195 15.394387 17.1463586 16.9201859 12.6814804 16.9201859"></polygon>
                        <path d="M11.6862027,12.2001046 L7.0319903,3.55493198 L3.13188464,5.96973989 L9.51177796,17.8203549 L11.6862027,16.4740277 L13.8606274,17.8203549 L20.2405208,5.96973989 L16.3404151,3.55493198 L11.6862027,12.2001046 Z" id="Combined-Shape" transform="translate(11.686203, 10.687643) rotate(-31.000000) translate(-11.686203, -10.687643) "></path>
                    </g>
                </g>
            </g>
        </g>
    </g>
</svg>