<?xml version="1.0" encoding="UTF-8" standalone="no"?>
<!-- Generator: Adobe Illustrator 17.1.0, SVG Export Plug-In . SVG Version: 6.00 Build 0)  -->

<svg
   xmlns:dc="http://purl.org/dc/elements/1.1/"
   xmlns:cc="http://creativecommons.org/ns#"
   xmlns:rdf="http://www.w3.org/1999/02/22-rdf-syntax-ns#"
   xmlns:svg="http://www.w3.org/2000/svg"
   xmlns="http://www.w3.org/2000/svg"
   xmlns:sodipodi="http://sodipodi.sourceforge.net/DTD/sodipodi-0.dtd"
   xmlns:inkscape="http://www.inkscape.org/namespaces/inkscape"
   version="1.1"
   x="0px"
   y="0px"
   width="1251.9px"
   height="390.3px"
   viewBox="0 0 1251.9 390.3"
   enable-background="new 0 0 1251.9 390.3"
   xml:space="preserve"
   id="svg3468"
   inkscape:version="0.91 r13725"
   sodipodi:docname="logo-light.svg"><metadata
     id="metadata3560"><rdf:RDF><cc:Work
         rdf:about=""><dc:format>image/svg+xml</dc:format><dc:type
           rdf:resource="http://purl.org/dc/dcmitype/StillImage" /></cc:Work></rdf:RDF></metadata><defs
     id="defs3558" /><sodipodi:namedview
     pagecolor="#ffffff"
     bordercolor="#666666"
     borderopacity="1"
     objecttolerance="10"
     gridtolerance="10"
     guidetolerance="10"
     inkscape:pageopacity="0"
     inkscape:pageshadow="2"
     inkscape:window-width="1920"
     inkscape:window-height="1035"
     id="namedview3556"
     showgrid="false"
     inkscape:zoom="1.0065215"
     inkscape:cx="458.87412"
     inkscape:cy="324.77016"
     inkscape:window-x="0"
     inkscape:window-y="23"
     inkscape:window-maximized="1"
     inkscape:current-layer="svg3468" /><g
     id="dark"
     sodipodi:docname="‚Äì√π‚Äì√¶‚Äì‚â§‚Äì‚àè‚ÄìœÄ ‚Äì¬•‚Äì√¶‚Äì‚à´‚Äî√â‚Äì¬∫‚Äì¬µ‚ÄìŒ©‚Äî√á 1"
     inkscape:version="0.48.2 r9819"><g
       id="g3471"><path
         fill="#F6C25B"
         d="M59.2,390.3h44.1c10.5,0,23.4-7.4,28.9-16.4l37.3-61.9c4.5-9.2,4.3-22.2-0.8-30.6l-22.1-36.3L59.2,390.3z"
         id="path3473" /><path
         fill="#0A985C"
         d="M106.7,211.5L8.5,375.8c-3.7,8,0.2,14.6,10,14.6h40.8l87.4-145.2l-40-66.2    C112.1,187.7,112.1,202.6,106.7,211.5"
         id="path3475" /><path
         fill="#5586C5"
         d="M18.3,0C7.7,0,3.6,7.4,9.1,16.4l159.6,265c5.1,8.4,5.1,21.7,0.8,30.6l38.8-64.6L59.4,0H18.3L18.3,0z"
         id="path3477" /><path
         fill="#D9423E"
         d="M59.2,0l148.9,247.4l21.7-35.9c5.5-9,5.5-23.6,0-32.6L132.2,16.4C126.8,7.4,113.9,0,103.3,0H59.2L59.2,0z"
         id="path3479" /></g><g
       id="g3481"><g
         id="g3483"><path
           fill="#E6E6E5"
           d="M756.5,117.1c0,17.4-4.7,30.8-14.2,40.2c-9.6,9.4-22.8,14.1-40.2,14.1h-33.6V67.1h35.9     c16.6,0,29.5,4.3,38.4,12.9C752,88.6,756.5,101.1,756.5,117.1z M727.4,118.3c0-9.6-2-16.6-5.7-21.3s-9.4-6.8-17.2-6.8h-8.2v58.3     h6.2c8.6,0,14.8-2.5,18.7-7.4C725.4,136,727.4,128.4,727.4,118.3z"
           id="path3485" /></g><g
         id="g3487"><path
           fill="#E6E6E5"
           d="M803.5,172.9c-13.5,0-23.8-3.5-31.2-10.7c-7.4-7.2-11.1-17.4-11.1-30.6c0-13.7,3.5-24.2,10.3-31.4     c6.8-7.2,16.6-10.9,29.3-10.9c12.1,0,21.5,3.1,28.1,9.6c6.6,6.4,10,15.4,10,27.5v12.5h-49.6c0.2,4.5,1.8,8,4.9,10.5     s7.2,3.9,12.7,3.9c4.9,0,9.4-0.4,13.5-1.4c4.1-1,8.6-2.5,13.3-4.7v20.1c-4.3,2.3-8.8,3.7-13.5,4.7     C815.4,172.5,809.9,172.9,803.5,172.9z M801.9,108.3c-3.3,0-6,1-8.2,3.1s-3.5,5.3-3.9,9.8h23.8c-0.2-3.9-1.2-7-3.3-9.4     C808.2,109.5,805.4,108.3,801.9,108.3z"
           id="path3489" /></g><g
         id="g3491"><path
           fill="#E6E6E5"
           d="M866.7,171.5l-30.6-80.8H865l13.7,47.8c0,0.2,0.2,0.6,0.4,1.2c0.2,0.6,0.2,1.2,0.4,2     c0.2,0.8,0.2,1.6,0.4,2.5c0.2,1,0.2,1.8,0.2,2.5h0.4c0-2.5,0.4-5.1,1.4-8l14.2-48h28.9l-30.6,80.8L866.7,171.5L866.7,171.5z"
           id="path3493" /></g><g
         id="g3495"><path
           fill="#E6E6E5"
           d="M954.7,171.5h-27.5V67.3h61.3V90h-33.8v19.9h31v22.6h-31V171.5L954.7,171.5z"
           id="path3497" /></g><g
         id="g3499"><path
           fill="#E6E6E5"
           d="M1033.8,172.9c-13.3,0-23.6-3.5-31.2-10.7c-7.4-7.2-11.1-17.4-11.1-30.6c0-13.7,3.5-24.2,10.3-31.4     c6.8-7.2,16.6-10.9,29.3-10.9c12.1,0,21.5,3.1,28.1,9.6c6.6,6.4,10,15.4,10,27.5v12.5h-49.6c0.2,4.5,1.8,8,4.9,10.5     c3.1,2.5,7.2,3.9,12.7,3.9c4.9,0,9.4-0.4,13.5-1.4c4.1-1,8.4-2.5,13.3-4.7v20.1c-4.3,2.3-8.8,3.7-13.5,4.7     C1045.7,172.5,1040.2,172.9,1033.8,172.9z M1032.2,108.3c-3.3,0-6,1-8.2,3.1c-2.1,2.1-3.5,5.3-3.9,9.8h23.8     c-0.2-3.9-1.2-7-3.3-9.4C1038.4,109.5,1035.7,108.3,1032.2,108.3z"
           id="path3501" /></g><g
         id="g3503"><path
           fill="#E6E6E5"
           d="M1138,146.7c0,8.6-2.9,15.2-8.8,19.7c-5.9,4.5-14.2,6.6-25.2,6.6c-5.9,0-11.1-0.4-15.4-1     c-4.5-0.6-8.8-1.8-13.5-3.5v-22.2c4.3,2,9,3.5,14.1,4.7c5.1,1.2,9.8,1.8,13.7,1.8c6,0,9-1.4,9-4.1c0-1.4-0.8-2.7-2.5-3.9     s-6.6-3.3-14.6-6.4c-7.4-3.1-12.5-6.4-15.4-10.3c-2.9-3.9-4.5-8.8-4.5-14.6c0-7.4,2.9-13.3,8.6-17.6c5.7-4.3,13.9-6.2,24.4-6.2     c5.3,0,10.3,0.6,14.8,1.8c4.7,1.2,9.4,2.9,14.4,5.1l-7.4,18c-3.7-1.6-7.6-3.1-11.7-4.3c-4.1-1.2-7.4-1.8-10-1.8     c-4.5,0-6.8,1.2-6.8,3.3c0,1.4,0.8,2.5,2.3,3.5c1.6,1,6.2,2.9,13.7,6c5.7,2.3,9.8,4.7,12.5,6.8c2.7,2.1,4.9,4.9,6,7.8     C1137.2,138.7,1138,142.5,1138,146.7z"
           id="path3505" /></g><g
         id="g3507"><path
           fill="#E6E6E5"
           d="M1183.8,150.8c3.7,0,8.2-1,13.5-2.7v20.3c-3.7,1.6-7.2,2.7-10.7,3.5c-3.3,0.8-7.4,1-11.9,1     c-9.4,0-16-2.3-20.1-6.8c-4.1-4.7-6.2-11.7-6.2-21.1v-33.4h-9.8v-11.3l12.3-8.8l7.2-17h18.1v16.2h19.7v20.9h-19.7V143     C1176.4,148.3,1178.9,150.8,1183.8,150.8z"
           id="path3509" /></g></g><g
       id="g3511"><g
         id="g3513"><path
           fill="#E6E6E5"
           d="M364,113h45.1v56.2c-12.3,4.1-25.8,6.2-40.4,6.2c-16,0-28.5-4.7-37.3-14.1c-8.8-9.4-13.1-22.6-13.1-39.8     c0-16.8,4.9-29.9,14.4-39.2c9.6-9.4,23-14.1,40.4-14.1c6.6,0,12.7,0.6,18.5,2c5.9,1.2,10.9,2.7,15.2,4.7L398,97     c-7.4-3.7-15.8-5.5-24.8-5.5c-8.2,0-14.6,2.7-19.1,8c-4.5,5.3-6.8,13.1-6.8,23c0,9.8,2,17.2,6,22.2s10,7.6,17.6,7.6     c4.1,0,8-0.4,11.5-1.2v-16.4h-18.5L364,113L364,113L364,113z"
           id="path3515" /></g><g
         id="g3517"><path
           fill="#E6E6E5"
           d="M510,119.6c0,17.4-4.9,30.8-14.4,40.2c-9.6,9.4-23,14.1-40.4,14.1h-33.8V69.5h36.1     c16.8,0,29.7,4.3,38.8,12.9C505.5,91.1,510,103.4,510,119.6z M480.7,120.6c0-9.6-2-16.6-5.7-21.3c-3.7-4.7-9.6-7-17.2-7h-8.2     v58.3h6.2c8.6,0,14.8-2.5,18.9-7.4C478.8,138.5,480.7,130.9,480.7,120.6z"
           id="path3519" /></g><g
         id="g3521"><path
           fill="#E6E6E5"
           d="M561.9,113H607v56.2c-12.3,4.1-25.6,6.2-40.4,6.2c-16,0-28.5-4.7-37.3-14.1c-8.8-9.4-13.1-22.6-13.1-39.8     c0-16.8,4.9-29.9,14.4-39.2c9.6-9.4,23-14.1,40.4-14.1c6.6,0,12.7,0.6,18.5,2c5.9,1.2,10.9,2.7,15.2,4.7l-9,22.1     c-7.6-3.7-15.8-5.5-24.8-5.5c-8.2,0-14.6,2.7-19.1,8c-4.5,5.3-6.8,13.1-6.8,23c0,9.8,2,17.2,6,22.2s10,7.6,17.6,7.6     c4.1,0,8-0.4,11.5-1.2v-16.4h-18.5L561.9,113L561.9,113z"
           id="path3523" /></g></g><path
       fill="#168B58"
       d="M106.7,211.5l-23.4,39.2l42,29.9l21.5-35.5l-40-66.2C112.1,187.7,112.1,202.6,106.7,211.5z"
       id="path3525" /><path
       fill="#D7AB56"
       d="M146.7,245.1l-21.5,35.5l44.1,31.4c4.5-9.2,4.3-22.2-0.8-30.6L146.7,245.1z"
       id="path3527" /></g><text
     xml:space="preserve"
     style="font-style:normal;font-weight:normal;font-size:143.75px;line-height:125%;font-family:sans-serif;letter-spacing:0px;word-spacing:0px;fill:#e6e6e5;fill-opacity:1;stroke:none;stroke-width:1px;stroke-linecap:butt;stroke-linejoin:miter;stroke-opacity:1"
     x="329.84888"
     y="320.75354"
     id="text3822"
     sodipodi:linespacing="125%"><tspan
       sodipodi:role="line"
       id="tspan3824"
       x="329.84888"
       y="320.75354"
       style="font-style:normal;font-variant:normal;font-weight:normal;font-stretch:normal;font-size:143.75px;font-family:Roboto;-inkscape-font-specification:Roboto">Cerrado 2016</tspan></text>
</svg>