<?xml version="1.0" encoding="UTF-8" standalone="no"?>
<!-- Generator: Adobe Illustrator 17.1.0, SVG Export Plug-In . SVG Version: 6.00 Build 0)  -->

<svg
   xmlns:dc="http://purl.org/dc/elements/1.1/"
   xmlns:cc="http://creativecommons.org/ns#"
   xmlns:rdf="http://www.w3.org/1999/02/22-rdf-syntax-ns#"
   xmlns:svg="http://www.w3.org/2000/svg"
   xmlns="http://www.w3.org/2000/svg"
   xmlns:sodipodi="http://sodipodi.sourceforge.net/DTD/sodipodi-0.dtd"
   xmlns:inkscape="http://www.inkscape.org/namespaces/inkscape"
   version="1.1"
   x="0px"
   y="0px"
   width="1251.4px"
   height="390.3px"
   viewBox="19.3 150.1 1251.4 390.3"
   enable-background="new 19.3 150.1 1251.4 390.3"
   xml:space="preserve"
   id="svg3468"
   inkscape:version="0.91 r13725"
   sodipodi:docname="logo.svg"><metadata
     id="metadata3560"><rdf:RDF><cc:Work
         rdf:about=""><dc:format>image/svg+xml</dc:format><dc:type
           rdf:resource="http://purl.org/dc/dcmitype/StillImage" /></cc:Work></rdf:RDF></metadata><defs
     id="defs3558" /><sodipodi:namedview
     pagecolor="#ffffff"
     bordercolor="#666666"
     borderopacity="1"
     objecttolerance="10"
     gridtolerance="10"
     guidetolerance="10"
     inkscape:pageopacity="0"
     inkscape:pageshadow="2"
     inkscape:window-width="1920"
     inkscape:window-height="1035"
     id="namedview3556"
     showgrid="false"
     inkscape:zoom="1.4240051"
     inkscape:cx="705.35894"
     inkscape:cy="82.790845"
     inkscape:window-x="0"
     inkscape:window-y="23"
     inkscape:window-maximized="1"
     inkscape:current-layer="g3530" /><g
     id="dark"
     sodipodi:docname="–ù–æ–≤–∏–π –¥–æ–∫—É–º–µ–Ω—Ç 1"
     inkscape:version="0.48.2 r9819"><g
       id="g3471"><path
         fill="#F6C25B"
         d="M71.8,540.4H116c10.4,0,23.4-7.3,28.8-16.3l37.2-61.9c4.4-9.1,4.2-22.3-0.8-30.7l-22-36.4L71.8,540.4z"
         id="path3473" /><path
         fill="#0A985C"
         d="M119.3,361.6L21,525.8c-3.8,8.1,0.2,14.5,9.9,14.5h40.9l87.5-145.3l-40-66.2    C124.7,337.9,124.7,352.6,119.3,361.6"
         id="path3475" /><path
         fill="#5586C5"
         d="M30.9,150.1c-10.5,0-14.6,7.4-9.3,16.3l159.6,265c5,8.4,5.2,21.6,0.8,30.6l38.8-64.5l-149-247.5    L30.9,150.1L30.9,150.1z"
         id="path3477" /><path
         fill="#D9423E"
         d="M71.8,150.1l149,247.5l21.6-36c5.4-9,5.4-23.7,0-32.7l-97.6-162.5c-5.4-8.9-18.4-16.3-28.8-16.3    L71.8,150.1L71.8,150.1z"
         id="path3479" /></g><g
       id="g3481"><g
         id="g3483"><path
           fill="#4E4E4E"
           d="M769.1,267.3c0,17.4-4.8,30.8-14.3,40.2c-9.5,9.4-22.9,14.1-40.1,14.1h-33.5V217.3h35.8     c16.6,0,29.4,4.3,38.5,12.8C764.6,238.7,769.1,251.1,769.1,267.3z M740.1,268.3c0-9.6-1.9-16.6-5.6-21.3     c-3.7-4.6-9.4-6.9-17.1-6.9h-8.1v58.4h6.2c8.5,0,14.7-2.5,18.7-7.4C738.1,286.1,740.1,278.5,740.1,268.3z"
           id="path3485" /></g><g
         id="g3487"><path
           fill="#4E4E4E"
           d="M816.1,323.1c-13.4,0-23.7-3.6-31.1-10.7c-7.4-7.2-11.1-17.4-11.1-30.6c0-13.6,3.4-24.1,10.3-31.4     c6.8-7.3,16.6-10.9,29.3-10.9c12.1,0,21.4,3.2,28,9.5c6.6,6.3,9.9,15.5,9.9,27.4v12.4h-49.5c0.2,4.5,1.8,8,4.9,10.6     c3.1,2.6,7.3,3.8,12.6,3.8c4.9,0,9.3-0.5,13.4-1.4c4.1-0.9,8.5-2.5,13.3-4.7v20c-4.3,2.2-8.8,3.8-13.4,4.6     C828,322.6,822.5,323.1,816.1,323.1z M814.4,258.4c-3.3,0-6,1-8.2,3.1c-2.2,2.1-3.5,5.3-3.9,9.7h23.8c-0.1-3.9-1.2-7-3.3-9.3     C820.8,259.5,818,258.4,814.4,258.4z"
           id="path3489" /></g><g
         id="g3491"><path
           fill="#4E4E4E"
           d="M879.3,321.6l-30.6-80.8h28.9l13.6,47.8c0,0.2,0.1,0.6,0.3,1.2c0.1,0.6,0.3,1.2,0.4,2     c0.2,0.8,0.3,1.6,0.4,2.5c0.1,0.9,0.2,1.7,0.2,2.4h0.5c0-2.5,0.4-5.1,1.3-8l14.2-48h28.8l-30.6,80.8H879.3z"
           id="path3493" /></g><g
         id="g3495"><path
           fill="#4E4E4E"
           d="M967.3,321.6h-27.5V217.3h61.2V240h-33.6v19.9h31v22.6h-31L967.3,321.6L967.3,321.6z"
           id="path3497" /></g><g
         id="g3499"><path
           fill="#4E4E4E"
           d="M1046.3,323.1c-13.4,0-23.7-3.6-31.1-10.7c-7.4-7.2-11.1-17.4-11.1-30.6c0-13.6,3.4-24.1,10.3-31.4     c6.8-7.3,16.6-10.9,29.3-10.9c12.1,0,21.4,3.2,28,9.5c6.6,6.3,9.9,15.5,9.9,27.4v12.4h-49.5c0.2,4.5,1.8,8,4.9,10.6     c3.1,2.6,7.3,3.8,12.6,3.8c4.9,0,9.3-0.5,13.4-1.4c4.1-0.9,8.5-2.5,13.3-4.7v20c-4.3,2.2-8.8,3.8-13.4,4.6     C1058.3,322.6,1052.8,323.1,1046.3,323.1z M1044.7,258.4c-3.2,0-6,1-8.2,3.1c-2.2,2.1-3.5,5.3-3.8,9.7h23.8     c-0.1-3.9-1.2-7-3.3-9.3C1051.1,259.5,1048.2,258.4,1044.7,258.4z"
           id="path3501" /></g><g
         id="g3503"><path
           fill="#4E4E4E"
           d="M1150.5,296.8c0,8.7-2.9,15.2-8.8,19.6c-5.9,4.4-14.3,6.6-25.2,6.6c-5.9,0-11.1-0.3-15.5-1     c-4.4-0.6-8.9-1.8-13.4-3.5v-22.3c4.3,1.9,9,3.5,14.1,4.7c5.1,1.2,9.7,1.8,13.7,1.8c6,0,9-1.4,9-4.1c0-1.4-0.8-2.7-2.5-3.8     c-1.7-1.1-6.5-3.3-14.6-6.5c-7.4-3.1-12.5-6.5-15.4-10.4c-2.9-3.9-4.4-8.8-4.4-14.7c0-7.5,2.9-13.4,8.6-17.5     c5.7-4.2,13.9-6.3,24.4-6.3c5.3,0,10.3,0.6,14.9,1.8c4.6,1.2,9.5,2.9,14.5,5.1l-7.5,18c-3.7-1.7-7.6-3.1-11.7-4.2     c-4.1-1.2-7.4-1.7-10-1.7c-4.5,0-6.8,1.1-6.8,3.3c0,1.4,0.8,2.6,2.4,3.5c1.6,1,6.2,3,13.7,6c5.6,2.3,9.8,4.6,12.6,6.9     c2.8,2.2,4.8,4.9,6.1,7.9C1149.9,288.8,1150.5,292.5,1150.5,296.8z"
           id="path3505" /></g><g
         id="g3507"><path
           fill="#4E4E4E"
           d="M1196.5,301c3.7,0,8.2-0.9,13.4-2.8v20.3c-3.7,1.6-7.3,2.7-10.7,3.4c-3.4,0.7-7.3,1-11.9,1     c-9.3,0-16-2.3-20.1-6.9c-4.1-4.6-6.2-11.6-6.2-21.2v-33.3h-9.7v-11.4l12.3-8.8l7.2-17h18.1v16.2h19.7v20.9H1189v31.5     C1189,298.4,1191.5,301,1196.5,301z"
           id="path3509" /></g></g><g
       id="g3511"><g
         id="g3513"><path
           fill="#4E4E4E"
           d="M376.6,263h45v56.2c-12.2,4.2-25.7,6.3-40.3,6.3c-16.1,0-28.5-4.7-37.3-14c-8.8-9.3-13.2-22.6-13.2-39.9     c0-16.9,4.8-29.9,14.4-39.3c9.6-9.4,23.1-14.1,40.4-14.1c6.6,0,12.8,0.6,18.6,1.9c5.8,1.2,10.9,2.8,15.2,4.7l-8.9,22.1     c-7.5-3.7-15.8-5.5-24.8-5.5c-8.2,0-14.6,2.7-19.1,8c-4.5,5.3-6.8,13-6.8,22.9c0,9.7,2,17.2,6.1,22.3c4.1,5.1,9.9,7.7,17.6,7.7     c4.2,0,8-0.4,11.6-1.2v-16.3h-18.6L376.6,263L376.6,263L376.6,263z"
           id="path3515" /></g><g
         id="g3517"><path
           fill="#4E4E4E"
           d="M522.7,269.7c0,17.4-4.8,30.8-14.4,40.2c-9.6,9.4-23,14.1-40.4,14.1h-33.8V219.8h36.1     c16.7,0,29.7,4.3,38.8,12.8C518.1,241.2,522.7,253.5,522.7,269.7z M493.4,270.7c0-9.6-1.9-16.7-5.7-21.3     c-3.8-4.6-9.5-6.9-17.2-6.9h-8.2V301h6.3c8.6,0,14.8-2.5,18.8-7.5C491.4,288.6,493.4,280.9,493.4,270.7z"
           id="path3519" /></g><g
         id="g3521"><path
           fill="#4E4E4E"
           d="M574.5,263h45v56.2c-12.2,4.2-25.7,6.3-40.3,6.3c-16.1,0-28.5-4.7-37.3-14c-8.8-9.3-13.2-22.6-13.2-39.9     c0-16.9,4.8-29.9,14.4-39.3c9.6-9.4,23.1-14.1,40.4-14.1c6.5,0,12.8,0.6,18.6,1.9c5.8,1.2,10.9,2.8,15.2,4.7l-8.9,22.1     c-7.5-3.7-15.8-5.5-24.8-5.5c-8.2,0-14.6,2.7-19.1,8c-4.5,5.3-6.7,13-6.7,22.9c0,9.7,2,17.2,6.1,22.3c4.1,5.1,9.9,7.7,17.6,7.7     c4.2,0,8-0.4,11.6-1.2v-16.3h-18.6L574.5,263L574.5,263z"
           id="path3523" /></g></g><path
       fill="#168B58"
       d="M119.3,361.6l-23.5,39.3l42,29.9l21.4-35.6l-40-66.2C124.7,337.9,124.7,352.6,119.3,361.6z"
       id="path3525" /><path
       fill="#D7AB56"
       d="M159.2,395.1l-21.4,35.6l44.2,31.4c4.4-9.1,4.2-22.3-0.8-30.6L159.2,395.1z"
       id="path3527" /></g><g
     id="Camada_2"><g
       id="g3530"><text
         xml:space="preserve"
         style="font-style:normal;font-variant:normal;font-weight:bold;font-stretch:normal;font-size:112.5px;line-height:125%;font-family:sans-serif;-inkscape-font-specification:'sans-serif Bold';letter-spacing:0px;word-spacing:0px;fill:#4e4e4e;fill-opacity:1;stroke:none;stroke-width:1px;stroke-linecap:butt;stroke-linejoin:miter;stroke-opacity:1"
         x="337.79886"
         y="463.15308"
         id="text3562"
         sodipodi:linespacing="125%"><tspan
           sodipodi:role="line"
           id="tspan3564"
           x="337.79886"
           y="463.15308"
           style="font-style:normal;font-variant:normal;font-weight:normal;font-stretch:normal;font-size:143.75px;font-family:Roboto;-inkscape-font-specification:Roboto;fill:#4e4e4e;fill-opacity:1">Cerrado 2016</tspan></text>
</g></g></svg>