<?xml version="1.0" encoding="UTF-8" standalone="no"?>
<!-- Generator: Adobe Illustrator 17.1.0, SVG Export Plug-In . SVG Version: 6.00 Build 0)  -->

<svg
   xmlns:dc="http://purl.org/dc/elements/1.1/"
   xmlns:cc="http://creativecommons.org/ns#"
   xmlns:rdf="http://www.w3.org/1999/02/22-rdf-syntax-ns#"
   xmlns:svg="http://www.w3.org/2000/svg"
   xmlns="http://www.w3.org/2000/svg"
   xmlns:sodipodi="http://sodipodi.sourceforge.net/DTD/sodipodi-0.dtd"
   xmlns:inkscape="http://www.inkscape.org/namespaces/inkscape"
   version="1.1"
   x="0px"
   y="0px"
   width="1253.1px"
   height="388.9px"
   viewBox="0 0 1253.1 388.9"
   enable-background="new 0 0 1253.1 388.9"
   xml:space="preserve"
   id="svg3954"
   inkscape:version="0.91 r13725"
   sodipodi:docname="logo-white.svg"><metadata
     id="metadata4042"><rdf:RDF><cc:Work
         rdf:about=""><dc:format>image/svg+xml</dc:format><dc:type
           rdf:resource="http://purl.org/dc/dcmitype/StillImage" /><dc:title></dc:title></cc:Work></rdf:RDF></metadata><defs
     id="defs4040" /><sodipodi:namedview
     pagecolor="#ffdc23"
     bordercolor="#666666"
     borderopacity="1"
     objecttolerance="10"
     gridtolerance="10"
     guidetolerance="10"
     inkscape:pageopacity="0.09411765"
     inkscape:pageshadow="2"
     inkscape:window-width="1920"
     inkscape:window-height="1035"
     id="namedview4038"
     showgrid="false"
     inkscape:zoom="0.24738649"
     inkscape:cx="626.54999"
     inkscape:cy="194.45"
     inkscape:window-x="0"
     inkscape:window-y="23"
     inkscape:window-maximized="1"
     inkscape:current-layer="svg3954" /><g
     id="Layer_1"><g
       id="g3957"><g
         id="g3959"><path
           fill="#FFFFFF"
           d="M756.4,116.7c0,17.3-4.7,30.7-14.2,40.1c-9.5,9.3-22.8,14-40.1,14h-33.5V66.7h35.8     c16.5,0,29.4,4.3,38.3,12.8C751.9,88.3,756.4,100.6,756.4,116.7z M727.4,117.7c0-9.5-1.9-16.5-5.6-21.2     c-3.7-4.7-9.3-6.8-17.1-6.8h-8.2v58.2h6.2c8.6,0,14.8-2.5,18.7-7.4C725.5,135.4,727.4,127.8,727.4,117.7z"
           id="path3961" /></g><g
         id="g3963"><path
           fill="#FFFFFF"
           d="M803.3,172.2c-13.4,0-23.7-3.5-31.1-10.7s-11.1-17.3-11.1-30.5c0-13.6,3.5-24.1,10.3-31.3     c6.8-7.2,16.5-10.9,29.2-10.9c12.1,0,21.4,3.1,28,9.5s9.9,15.4,9.9,27.4v12.5h-49.4c0.2,4.5,1.8,8,4.9,10.5     c3.1,2.5,7.2,3.9,12.6,3.9c4.9,0,9.3-0.4,13.4-1.4c4.1-1,8.6-2.5,13.2-4.7v20c-4.3,2.3-8.8,3.7-13.4,4.7     C815.2,172,809.7,172.2,803.3,172.2z M801.7,108c-3.3,0-6,1-8.2,3.1c-2.1,2.1-3.5,5.3-3.9,9.7h23.7c-0.2-3.9-1.2-7-3.3-9.3     C808,109.2,805.2,108,801.7,108z"
           id="path3965" /></g><g
         id="g3967"><path
           fill="#FFFFFF"
           d="M866.3,171l-30.5-80.6h28.8l13.6,47.7c0,0.2,0.2,0.6,0.4,1.2c0.2,0.6,0.2,1.2,0.4,1.9     c0.2,0.8,0.2,1.6,0.4,2.5c0.2,1,0.2,1.8,0.2,2.5h0.4c0-2.5,0.4-5.1,1.4-8l14.2-47.9h28.8L893.8,171L866.3,171L866.3,171z"
           id="path3969" /></g><g
         id="g3971"><path
           fill="#FFFFFF"
           d="M954.1,171h-27.4V67.1h61.1v22.6h-33.7v19.8H985v22.6h-30.9L954.1,171L954.1,171z"
           id="path3973" /></g><g
         id="g3975"><path
           fill="#FFFFFF"
           d="M1032.9,172.2c-13.2,0-23.5-3.5-31.1-10.7c-7.4-7.2-11.1-17.3-11.1-30.5c0-13.6,3.5-24.1,10.3-31.3     c6.8-7.2,16.5-10.9,29.2-10.9c12.1,0,21.4,3.1,28,9.5c6.6,6.4,9.9,15.4,9.9,27.4v12.5h-49.4c0.2,4.5,1.8,8,4.9,10.5     c3.1,2.5,7.2,3.9,12.6,3.9c4.9,0,9.3-0.4,13.4-1.4c4.1-1,8.4-2.5,13.2-4.7v20c-4.3,2.3-8.8,3.7-13.4,4.7     C1044.8,172,1039.3,172.2,1032.9,172.2z M1031.3,108c-3.3,0-6,1-8.2,3.1c-2.1,2.1-3.5,5.3-3.9,9.7h23.7c-0.2-3.9-1.2-7-3.3-9.3     C1037.6,109.2,1034.8,108,1031.3,108z"
           id="path3977" /></g><g
         id="g3979"><path
           fill="#FFFFFF"
           d="M1136.8,146.1c0,8.6-2.9,15.2-8.8,19.7c-5.8,4.5-14.2,6.6-25.1,6.6c-5.8,0-11.1-0.4-15.4-1     c-4.5-0.6-8.8-1.8-13.4-3.5v-22.2c4.3,1.9,8.9,3.5,14,4.7c5.1,1.2,9.7,1.8,13.6,1.8c6,0,8.9-1.4,8.9-4.1c0-1.4-0.8-2.7-2.5-3.9     c-1.8-1.2-6.6-3.3-14.6-6.4c-7.4-3.1-12.5-6.4-15.4-10.3c-2.9-3.9-4.5-8.8-4.5-14.6c0-7.4,2.9-13.2,8.6-17.5     c5.6-4.3,13.8-6.2,24.3-6.2c5.3,0,10.3,0.6,14.8,1.8c4.7,1.2,9.3,2.9,14.4,5.1l-7.4,17.9c-3.7-1.6-7.6-3.1-11.7-4.3     c-4.1-1.2-7.4-1.8-9.9-1.8c-4.5,0-6.8,1.2-6.8,3.3c0,1.4,0.8,2.5,2.3,3.5c1.6,1,6.2,2.9,13.6,6c5.6,2.3,9.7,4.7,12.5,6.8     c2.7,2.1,4.9,4.9,6,7.8C1136,138.3,1136.8,142,1136.8,146.1z"
           id="path3981" /></g><g
         id="g3983"><path
           fill="#FFFFFF"
           d="M1182.5,150.2c3.7,0,8.2-1,13.4-2.7v20.2c-3.7,1.6-7.2,2.7-10.7,3.5c-3.3,0.8-7.4,1-11.9,1     c-9.3,0-16-2.3-20-6.8c-4.1-4.7-6.2-11.7-6.2-21v-33.3h-9.7V99.8l12.3-8.8l7.2-16.9h18.1v16.1h19.7v20.8h-19.7v31.3     C1175.1,147.9,1177.6,150.2,1182.5,150.2z"
           id="path3985" /></g></g><g
       id="g3987"><g
         id="g3989"><path
           fill="#FFFFFF"
           d="M365.1,112.7h44.9v56c-12.3,4.1-25.7,6.2-40.3,6.2c-16,0-28.4-4.7-37.2-14c-8.8-9.3-13-22.6-13-39.7     c0-16.7,4.9-29.8,14.4-39.1c9.5-9.3,23-14,40.3-14c6.6,0,12.6,0.6,18.5,1.9c5.8,1.2,10.9,2.7,15.2,4.7l-8.9,22     c-7.4-3.7-15.8-5.4-24.7-5.4c-8.2,0-14.6,2.7-19.1,8s-6.8,13-6.8,23c0,9.7,1.9,17.1,6,22.2s9.9,7.6,17.5,7.6     c4.1,0,8-0.4,11.5-1.2v-16.3h-18.5L365.1,112.7L365.1,112.7L365.1,112.7z"
           id="path3991" /></g><g
         id="g3993"><path
           fill="#FFFFFF"
           d="M510.7,119.1c0,17.3-4.9,30.7-14.4,40.1c-9.5,9.3-23,14-40.3,14h-33.7V69.1h36c16.7,0,29.6,4.3,38.7,12.8     C506.2,90.7,510.7,103.1,510.7,119.1z M481.5,120c0-9.5-1.9-16.5-5.6-21.2s-9.5-7-17.1-7h-8.2V150h6.2c8.6,0,14.8-2.5,18.9-7.4     C479.5,138.1,481.5,130.6,481.5,120z"
           id="path3995" /></g><g
         id="g3997"><path
           fill="#FFFFFF"
           d="M562.4,112.7h44.9v56c-12.3,4.1-25.5,6.2-40.3,6.2c-16,0-28.4-4.7-37.2-14c-8.8-9.3-13-22.6-13-39.7     c0-16.7,4.9-29.8,14.4-39.1c9.5-9.3,23-14,40.3-14c6.6,0,12.6,0.6,18.5,1.9c5.8,1.2,10.9,2.7,15.2,4.7l-9,22     c-7.6-3.7-15.8-5.4-24.7-5.4c-8.2,0-14.6,2.7-19.1,8c-4.5,5.3-6.8,13-6.8,23c0,9.7,1.9,17.1,6,22.2c4.1,5.1,9.9,7.6,17.5,7.6     c4.1,0,8-0.4,11.5-1.2v-16.3h-18.5L562.4,112.7L562.4,112.7z"
           id="path3999" /></g></g><g
       id="g4001"><path
         fill="#FFFFFF"
         d="M210.8,245.9L57.1,0H14.7C6.2,0,3.1,5.8,7.3,13l103.1,168.3l0.6,0.8L180.9,294L210.8,245.9z"
         id="path4003" /><path
         fill="#FFFFFF"
         d="M234.6,207.6c4.5-7.2,4.5-18.9,0-26.1L130.3,13c-4.5-7.2-15-13-23.3-13H64.1l150.2,240.3L234.6,207.6z"
         id="path4005" /><path
         fill="#FFFFFF"
         d="M147.2,251.4l-86,137.8h45.7c8.4,0,19.1-5.8,23.3-13l41.6-67.3c0.2-0.2,0.4-0.8,1.2-1.9l4.3-7L147.2,251.4    z"
         id="path4007" /><path
         fill="#FFFFFF"
         d="M110.6,207.6L7.5,375.9c-4.5,7.2-1.2,13,7.4,13h39.5l89.5-143.2l-30-48.3    C113.4,201.2,112.2,204.7,110.6,207.6z"
         id="path4009" /></g></g><text
     xml:space="preserve"
     style="font-style:normal;font-variant:normal;font-weight:normal;font-stretch:normal;font-size:143.75px;line-height:125%;font-family:Roboto;-inkscape-font-specification:Roboto;letter-spacing:0px;word-spacing:0px;fill:#ffffff;fill-opacity:1;stroke:none;stroke-width:1px;stroke-linecap:butt;stroke-linejoin:miter;stroke-opacity:1;"
     x="323.38052"
     y="336.35065"
     id="text4046"
     sodipodi:linespacing="125%"><tspan
       sodipodi:role="line"
       id="tspan4048"
       x="323.38052"
       y="336.35065">Cerrado 2016</tspan></text>
</svg>