<?xml version="1.0" encoding="UTF-8" standalone="no"?>
<svg
   xmlns:dc="http://purl.org/dc/elements/1.1/"
   xmlns:cc="http://creativecommons.org/ns#"
   xmlns:rdf="http://www.w3.org/1999/02/22-rdf-syntax-ns#"
   xmlns:svg="http://www.w3.org/2000/svg"
   xmlns="http://www.w3.org/2000/svg"
   xmlns:xlink="http://www.w3.org/1999/xlink"
   xmlns:sodipodi="http://sodipodi.sourceforge.net/DTD/sodipodi-0.dtd"
   xmlns:inkscape="http://www.inkscape.org/namespaces/inkscape"
   width="420"
   height="180"
   viewBox="0 0 420 180"
   version="1.1"
   id="svg2"
   inkscape:version="0.91 r13725"
   sodipodi:docname="logo_arvore.svg">
  <metadata
     id="metadata59">
    <rdf:RDF>
      <cc:Work
         rdf:about="">
        <dc:format>image/svg+xml</dc:format>
        <dc:type
           rdf:resource="http://purl.org/dc/dcmitype/StillImage" />
        <dc:title>header logo with text horizontal</dc:title>
      </cc:Work>
    </rdf:RDF>
  </metadata>
  <sodipodi:namedview
     pagecolor="#ffffff"
     bordercolor="#666666"
     borderopacity="1"
     objecttolerance="10"
     gridtolerance="10"
     guidetolerance="10"
     inkscape:pageopacity="0"
     inkscape:pageshadow="2"
     inkscape:window-width="1366"
     inkscape:window-height="715"
     id="namedview57"
     showgrid="false"
     inkscape:zoom="1.0621302"
     inkscape:cx="169"
     inkscape:cy="59.5"
     inkscape:window-x="-8"
     inkscape:window-y="22"
     inkscape:window-maximized="1"
     inkscape:current-layer="svg2" />
  <!-- Generator: Sketch 3.8.1 (29687) - http://www.bohemiancoding.com/sketch -->
  <title
     id="title4">header logo with text horizontal</title>
  <desc
     id="desc6">Created with Sketch.</desc>
  <defs
     id="defs8">
    <path
       d="m 34.996965,70.794576 c 2.720543,0 5.148768,-1.031739 7.474586,-2.966766 1.712836,-1.42504 3.079837,-2.994544 5.417116,-6.010825 0.124862,-0.161136 0.554861,-0.717043 0.563962,-0.728801 0.223286,-0.288482 0.392933,-0.506991 0.557951,-0.718364 2.015346,-2.581467 3.320131,-4.009903 4.725849,-5.032065 0.630654,-0.458576 1.294525,-0.893504 2.007715,-1.319498 0.802675,-0.479445 1.645211,-0.935602 2.670507,-1.455047 0.540857,-0.274014 2.370409,-1.175757 2.650388,-1.316119 3.062274,-1.53521 4.789035,-2.673368 6.22085,-4.356308 1.8069,-2.123811 2.708041,-4.832012 2.708041,-8.426015 0,-5.648174 -0.86889,-8.950096 -3.662869,-14.704224 C 64.021062,19.00316 60.779897,15.757777 54.707289,11.327752 53.938534,10.766938 51.258001,8.8458658 51.018995,8.673258 50.13811,8.0370914 49.802505,7.7765593 47.676848,6.1013624 45.048611,4.0300903 43.566234,2.9611696 41.828904,1.9934 39.488844,0.6898829 37.269069,0 34.996965,0 c -2.989675,0 -5.518262,1.1996964 -7.81808,3.456064 -1.659984,1.6286229 -2.80155,3.2272349 -5.175057,6.954117 -0.02384,0.03743 -0.02384,0.03743 -0.04767,0.07485 -2.433184,3.820609 -3.586594,5.405768 -5.181703,6.846304 -1.232102,1.112706 -2.611307,2.099207 -4.381954,3.18302 -0.510357,0.312389 -1.036098,0.623334 -1.72937,1.025431 0.04391,-0.02547 -1.343926,0.77644 -1.7284494,1.001468 C 5.9197045,24.305657 4.2028813,25.556108 2.7727033,27.25746 0.93686219,29.441391 0,32.071094 0,35.397288 0,54.94667 15.668675,70.794576 34.996965,70.794576 l 0,0 z m 0,-2.987113 c -17.697211,0 -32.0436346,-14.51053 -32.0436346,-32.410175 0,-2.623963 0.69202,-4.566411 2.0693777,-6.204927 1.1521298,-1.370583 2.6496053,-2.461272 5.3910229,-4.065583 0.376221,-0.22017 1.756055,-1.017454 1.718546,-0.995699 0.711667,-0.412766 1.255715,-0.734539 1.789309,-1.061151 1.913716,-1.171385 3.433706,-2.258585 4.819866,-3.51042 1.866138,-1.685301 3.114341,-3.400736 5.697532,-7.456889 0.02384,-0.03743 0.02384,-0.03743 0.04767,-0.07484 2.247243,-3.5286243 3.308507,-5.0147839 4.748528,-6.4275987 1.783273,-1.7495819 3.603223,-2.6130634 5.761787,-2.6130634 3.15123,0 5.784178,1.466669 10.864691,5.4705414 2.167354,1.7080577 2.511533,1.9752457 3.44117,2.6466197 0.247982,0.179091 2.920122,2.094148 3.676832,2.646176 5.712512,4.167331 8.654475,7.113122 10.70051,11.326879 2.606942,5.368932 3.360432,8.232311 3.360432,13.387439 0,2.908501 -0.670093,4.922332 -1.993314,6.477631 -1.104115,1.297765 -2.562401,2.258964 -5.293822,3.628308 -0.265675,0.133191 -2.102877,1.038704 -2.661482,1.32171 -1.081353,0.547845 -1.980962,1.034901 -2.849614,1.553755 -0.78659,0.469837 -1.524286,0.953129 -2.22988,1.466199 -1.694703,1.232296 -3.141808,2.816539 -5.319752,5.606279 -0.168018,0.215215 -0.339982,0.436708 -0.565589,0.728189 -0.0098,0.01266 -0.439026,0.567569 -0.562953,0.727498 -2.208443,2.850017 -3.473564,4.302549 -4.96879,5.546542 -1.832838,1.524879 -3.625529,2.286584 -5.598439,2.286584 l 0,0 z"
       id="path-1"
       inkscape:connector-curvature="0" />
  </defs>
  <g
     id="Page-1"
     style="fill:none;fill-rule:evenodd;stroke:none;stroke-width:1"
     transform="matrix(1.4519066,0,0,1.8948545,-2.8651631,-18.270744)">
    <g
       id="header-logo-with-text-horizontal">
      <text
         id="descrição-logo"
         font-size="26"
         font-weight="400"
         letter-spacing="-0.0242990647"
         style="font-weight:400;font-size:26px;font-family:Roboto-Medium, Roboto;letter-spacing:-0.02429906;fill:#ffffff">
        <tspan
           x="123.60484"
           y="51"
           id="tspan14">GDG DevFest</tspan>
        <tspan
           x="123.3181"
           y="81"
           font-weight="300"
           letter-spacing="-0.0263239872"
           id="tspan16"
           style="font-weight:300;font-family:Roboto-Light, Roboto;letter-spacing:-0.02632399">Cerrado 2016</tspan>
      </text>
      <g
         id="Group-6"
         transform="translate(17,16)">
        <g
           id="copa">
          <mask
             id="mask-2"
             fill="white">
            <use
               xlink:href="#path-1"
               id="use21"
               x="0"
               y="0"
               width="100%"
               height="100%" />
          </mask>
          <use
             id="Mask"
             xlink:href="#path-1"
             style="opacity:0;fill:#000000"
             x="0"
             y="0"
             width="100%"
             height="100%" />
          <g
             id="Group-3"
             mask="url(#mask-2)">
            <g
               transform="translate(-2.067331,-1.194845)"
               id="Rectangle-31">
              <rect
                 x="0"
                 y="0"
                 width="32.781967"
                 height="73.781685"
                 id="rect26"
                 style="fill:#ef5350" />
              <rect
                 x="21.559313"
                 y="0"
                 width="32.781967"
                 height="60.937103"
                 id="rect28"
                 style="fill:#ffee58" />
              <rect
                 x="54.341278"
                 y="0"
                 width="21.559313"
                 height="73.781685"
                 id="rect30"
                 style="fill:#66bb6a" />
              <rect
                 x="54.341278"
                 y="0"
                 width="6.7926598"
                 height="73.781685"
                 id="rect32"
                 style="fill:#66bb6a" />
              <rect
                 x="36.035503"
                 y="48.092518"
                 width="39.865089"
                 height="25.689171"
                 id="rect34"
                 style="fill:#42a5f5" />
            </g>
          </g>
        </g>
        <path
           d="m 30.029586,63.216463 4.50558,0 0,19.759175 -4.50558,0 0,-19.759175 z m 1.029392,0.05226 0.885999,0 c 0,0 0,-1.014156 0,5.892869 l 0,13.814048 -0.885999,0 0,-19.706917 z"
           id="Rectangle-1"
           inkscape:connector-curvature="0"
           style="fill:#ffffff" />
        <g
           id="Group"
           transform="matrix(0.86162916,0.50753836,-0.50753836,0.86162916,38.734995,33.733807)"
           style="fill:#ffffff">
          <path
             d="M 8.5592689,8.9407677 3.902173,0.30157737 -3.4901527e-4,2.7147143 6.383497,14.557129 8.5592689,13.211733 10.735041,14.557129 17.118887,2.7147143 13.216365,0.30157737 8.5592689,8.9407677 Z"
             id="Combined-Shape"
             inkscape:connector-curvature="0" />
          <polygon
             id="Triangle-1"
             points="6.3069136,14.557129 8.5407358,13.032386 10.774558,14.557129 " />
        </g>
        <g
           id="Group-4"
           transform="translate(30.704579,21.994305)"
           style="fill:#ffffff">
          <path
             d="M 8.8973343,8.5815521 4.2006936,0 2.230999,1.1996544 0.26503414,2.3970371 0.13251707,1.9759175 0.26503414,2.3970371 6.7030873,14.160442 8.8973343,12.824023 11.091581,14.160442 17.529634,2.3970371 13.593975,0 8.8973343,8.5815521 Z"
             id="path41"
             inkscape:connector-curvature="0" />
          <polygon
             id="polygon43"
             points="6.6258536,14.160442 8.8786438,12.645872 11.131434,14.160442 " />
        </g>
        <g
           id="Group-2"
           transform="translate(22.217319,46.59481)"
           style="fill:#ffffff">
          <path
             d="M 10.066547,11.202163 3.9356595,0 0,2.3970371 1.4118486,4.9767219 1.4076786,4.9792619 7.8457317,16.742667 10.065304,15.390824 12.284877,16.742667 18.72293,4.9792619 18.72063,4.9778519 19.729316,3.1348126 15.793656,0.73777548 10.06655,11.202161 Z"
             id="path46"
             inkscape:connector-curvature="0" />
          <polygon
             id="polygon48"
             points="7.8191528,16.742665 10.071943,15.228094 12.324733,16.742665 " />
        </g>
        <g
           id="g50"
           transform="translate(10.313748,33.524562)"
           style="fill:#ffffff">
          <g
             id="Group-5"
             transform="translate(0.088601,0.059741)">
            <polygon
               id="polygon53"
               transform="matrix(0.8571673,-0.51503807,0.51503807,0.8571673,-6.191422,9.9890254)"
               points="12.68148,16.920186 14.91392,15.394387 17.146359,16.920186 " />
            <path
               d="M 11.686203,12.200105 7.0319903,3.554932 3.1318846,5.9697399 9.511778,17.820355 11.686203,16.474028 13.860627,17.820355 20.240521,5.9697399 16.340415,3.554932 11.686203,12.200105 Z"
               id="path55"
               transform="matrix(0.8571673,-0.51503807,0.51503807,0.8571673,-3.8353712,7.5453844)"
               inkscape:connector-curvature="0" />
          </g>
        </g>
      </g>
    </g>
  </g>
</svg>
